<svg xmlns="http://www.w3.org/2000/svg" xmlns:xlink="http://www.w3.org/1999/xlink" xmlns:inkscape="http://www.inkscape.org/namespaces/inkscape" version="1.1" width="1311.76" height="1311.76" viewBox="0 0 1311.76 1311.76">
<defs>
<clipPath id="clip_1">
<path transform="matrix(1,0,0,-1,0,1311.76)" d="M0 1311.759H1311.759V0H0Z"/>
</clipPath>
</defs>
<g clip-path="url(#clip_1)">
<path transform="matrix(1,0,0,-1,1283.8131,655.874)" d="M0 0C0 346.784-281.124 627.908-627.908 627.908-974.692 627.908-1255.816 346.784-1255.816 0-1255.816-346.784-974.692-627.908-627.908-627.908-281.124-627.908 0-346.784 0 0M27.945-.007C27.945-362.239-265.702-655.886-627.934-655.886-990.166-655.886-1283.813-362.239-1283.813-.007-1283.813 362.225-990.166 655.872-627.934 655.872-265.702 655.872 27.945 362.225 27.945-.007" fill="#b99e62"/>
<path transform="matrix(1,0,0,-1,881.0517,441.6195)" d="M0 0-8.45 159.871-225.253-79.242-324.816 10.07-419.373 96.283-419.767 144.265-442.248 152.882C-445.265 154.038-444.527 161.888-442.819 164.064-425.074 163.231-414.185 153.757-401.925 142.691L-227.919-14.39-109.499 116.756-9.892 226.315 35.214 226.412 53.073-110.92 7.335-136.835 5.97-119.321 4.053-78.82 1.17-27.244C-14.365-32.795-26.18-47.894-37.422-46.974-39.713-46.787-39.439-37.899-37.422-36.613L-.99-13.382C.632-9.802 .292-5.525 0 0" fill="#c8a55f"/>
<path transform="matrix(1,0,0,-1,378.7289,269.2224)" d="M0 0 14.306-.115C16.971-.136 20.95-4.558 20.491-7.433 19.974-10.672 15.557-12.035 11.759-12.371L-10.795-14.368C-51.836-18.002-87.9-42.068-108.427-78.018-126.082-108.939-126.466-144.6-113.421-177.797-94.982-224.72-67.684-243.262-44.465-290.675-26.776-326.798-32.517-367.591-58.154-398.426-95.975-443.916-183.438-468.75-183.268-453.357-183.245-451.323-179.949-447.334-177.855-447.016-137.827-440.924-100.885-424.868-72.613-396.618-44.434-368.459-38.29-328.775-56.182-293.503-80.059-246.43-113.944-220.599-128.994-168.422-152.451-87.101-94.839-13.772-15.411-1.939-16.141 22.038-14.775 54.888 14.404 54.721 49.396 54.521 44.997 10.277 44.282-10.136L42.523-60.385 31.051-265.686 28.706-304.73 26.454-346.296 20.251-465.389C20.12-467.904 16.431-471.642 14.746-471.317 13.082-470.997 10.08-467.857 9.968-465.942L.781-308.433-.175-288.113-11.307-94.374-15.248-21.749-.746-17.491C1.181-31.622-1.678-58.117 14.552-58.297 21.101-58.369 26.301-53.493 27.108-45.731 29.53-22.432 30.168 .888 27.997 24.138 27.346 31.121 21.658 37.307 16.595 37.844-2.714 39.894 .79 13.234 0 0" fill="#c8a55f"/>
<path transform="matrix(1,0,0,-1,466.7753,481.77595)" d="M0 0C-.686 21.113-.4 39.434 1.691 61.191L191.673-111.986 235.52-63.885 360.279 72.846 364.16 8.013 270.145-94.355 193.735-177.537Z" fill="#c8a55f"/>
<path transform="matrix(1,0,0,-1,917.0082,720.2014)" d="M0 0C-28.691-.537-55.734 3.696-77.592 22.089-85.784 28.982-93.045 39.458-93.51 50.626-94.149 65.996-86.235 79.365-75.628 89.724-58.709 106.25-39.698 119.22-19.078 131.284L61.799 178.603C83.359 191.217 102.22 206.46 120.353 223.565 130.411 233.053 138.5 244.982 143.411 257.596 149.115 272.248 144.092 287.843 131.142 296.494 103.305 315.088 55.835 301.255 26.618 284.522 25.219 286.518 24.128 292.978 25.244 295.157 26.36 297.336 30.233 299.71 33.367 301.065 66.762 315.501 106.1 326.863 138.91 304.819 157.42 292.382 162.104 269.584 152.943 249.181 131.008 200.334 62.113 165.353 18.283 139.292L-25.609 113.194C-44.297 102.083-61.764 88.626-75.12 71.972-85.03 59.615-84.062 42.833-72.577 32.906-58.778 20.978-41.267 14.61-22.759 12.537L-26.193 98.452 19.376 124.117 25.95 .485Z" fill="#c8a55f"/>
<path transform="matrix(1,0,0,-1,938.4348,1077.6257)" d="M0 0C-4.273-1.252-11.4-1.522-16.968-1.15L-17.593 38.283-64.812 38.251-65.086-.785-82.143-1.223-82.251 90.808-65.344 90.765-64.817 53.224-17.444 53.203-17.136 90.516-.123 90.253Z" fill="#0c2547"/>
<path transform="matrix(1,0,0,-1,472.6855,1075.11)" d="M0 0C-19.937-9.116-42.512-6.088-60.417 5.733L-54.995 20.108C-40.204 8.057-4.268 3.438-3.468 20.835-3.266 25.22-7.53 29.971-12.33 31.344L-40.67 39.449C-50.521 42.266-57.603 50.434-58.565 58.641-59.809 69.255-55.57 79.586-45.417 84.418-27.988 92.714-7.712 91.371 9.612 81.805L3.579 68.256C-9.788 76.85-39.175 80.225-41.8 64.057-42.331 60.788-37.564 54.735-34.087 53.742L-4.465 45.28C4.982 42.581 12.545 34.616 13.597 26.448 14.893 16.387 10.65 4.87 0 0" fill="#0c2547"/>
<path transform="matrix(1,0,0,-1,817.2733,1054.7013)" d="M0 0C3.499-.884 8.393-5.276 11.215-9.032 4.684-19.969-6.801-23.854-18.891-25.249-48.51-28.669-72.971-8.582-74.052 20.701-75.053 47.833-52.125 70.836-22.894 69.333-10.097 68.675 2.126 64.816 11.12 54.703 9.47 50.388 4.154 45.319-.256 43.839-13.72 57.059-33.887 58.239-47.307 44.961-58.758 33.631-59.849 12.687-48.045-.293-36.3-13.208-14.792-14.447 0 0" fill="#0c2547"/>
<path transform="matrix(1,0,0,-1,696.1787,1078.9264)" d="M0 0-17.165 .418-17.399 77.449-47.139 77.558-46.895 92.361 30.108 92.298C30.82 88.438 30.616 82.585 29.867 77.564L.118 77.481Z" fill="#0c2547"/>
<path transform="matrix(1,0,0,-1,551.1849,1078.5344)" d="M0 0-17.502-.657-17.659 77-47.231 77.219-47.349 91.788 30.682 91.786 30.967 77.128 .145 77.1Z" fill="#0c2547"/>
<path transform="matrix(1,0,0,-1,624.1075,1078.5452)" d="M0 0-17.407-.168-17.57 91.277-.137 91.543Z" fill="#0c2547"/>
<path transform="matrix(1,0,0,-1,311.5201,939.5857)" d="M0 0-.472 104.637-51.67 19.103C-57.156 18.351-62.96 18.388-67.903 19.372L-118.441 102.61-119.135-.024-148.444 .263-148.595 159.452-122.199 159.462-59.277 55.98 3.052 159.856 29.526 159.55 29.745 .273Z" fill="#0c2547"/>
<path transform="matrix(1,0,0,-1,719.2845,939.3422)" d="M0 0-25.691-.342-112.073 106.193-112.646-.151-142.375-.192-142.391 159.69-117.15 159.585-30.77 53.035-30.172 159.733-.109 159.485Z" fill="#0c2547"/>
<path transform="matrix(1,0,0,-1,515.2368,859.4415)" d="M0 0C0 31.041-25.163 56.204-56.204 56.204-87.245 56.204-112.408 31.041-112.408 0-112.408-31.041-87.245-56.204-56.204-56.204-25.163-56.204 0-31.041 0 0M29.567 9.621C35.467-43.1-4.202-82.775-55.051-82.785-93.961-82.793-128.056-61.495-138.943-24.723-149.812 11.988-136.119 51.364-101.667 70.529-78.713 83.297-52.341 84.861-27.287 77.648 3.991 68.644 25.859 42.75 29.567 9.621" fill="#0c2547"/>
<path transform="matrix(1,0,0,-1,978.2981,938.45986)" d="M0 0C-11.693-1.276-23.266-1.318-35.438-1.058L-90.808 67.261-116.193 40.333-116.927-1.064-146.846-1.129-147.054 158.079-116.981 158.643-115.963 79.378-40.016 158.729-5.895 157.807-70.671 88.896Z" fill="#0c2547"/>
<path transform="matrix(1,0,0,-1,1098.9697,877.7294)" d="M0 0-29.568 67.879-58.699-.394ZM10.518-24.471-69.703-24.449-85.458-61.825-116.665-61.532-45.09 98.083-13.425 97.683 59.604-61.527 27.341-61.911Z" fill="#0c2547"/>
<path transform="matrix(1,0,0,-1,790.3218,779.60366)" d="M0 0 .051-160.035-30.83-160.045-30.882-.01Z" fill="#0c2547"/>
</g>
</svg>
